<svg width="24" height="24" viewBox="0 0 24 24" fill="none" xmlns="http://www.w3.org/2000/svg">
<path fill-rule="evenodd" clip-rule="evenodd" d="M17.4838 7.35297C17.7307 7.59804 17.7323 7.99693 17.4872 8.24391C15.4323 10.3148 13.7933 12.3881 12.6679 13.9443C12.1057 14.7219 11.6726 15.369 11.381 15.8202C11.2352 16.0458 11.1249 16.2224 11.0514 16.3417C11.0147 16.4014 10.9872 16.4467 10.9692 16.4767L10.9492 16.5101L10.9445 16.5179L10.9436 16.5196C10.8329 16.7075 10.6327 16.8251 10.4146 16.83C10.1969 16.8349 9.99204 16.7269 9.87299 16.5445C9.87294 16.5445 9.87249 16.5438 9.87243 16.5437L9.87179 16.5427L9.86396 16.531C9.85635 16.5198 9.84395 16.5016 9.82675 16.4772C9.79234 16.4282 9.73876 16.354 9.66588 16.2586C9.52006 16.0677 9.29738 15.7929 8.99695 15.4675C8.39548 14.8159 7.48631 13.9659 6.26253 13.1807C5.96968 12.9928 5.8846 12.6031 6.07249 12.3103C6.26038 12.0174 6.65009 11.9323 6.94294 12.1202C8.2744 12.9745 9.26414 13.8993 9.92276 14.6128C10.0844 14.7878 10.2263 14.9504 10.3486 15.0964C10.65 14.6313 11.0865 13.981 11.6469 13.206C12.7994 11.6122 14.4802 9.48549 16.5928 7.35642C16.8379 7.10944 17.2368 7.10789 17.4838 7.35297Z" fill="white"/>
</svg>
