<svg width="24" height="24" viewBox="0 0 24 24" fill="none" xmlns="http://www.w3.org/2000/svg">
<g clip-path="url(#clip0_19543_9953)">
<path fill-rule="evenodd" clip-rule="evenodd" d="M12 0C18.627 0 24 5.37305 24 12C24 18.627 18.627 24 12 24C5.37305 24 0 18.627 0 12C0 5.37305 5.37305 0 12 0ZM10.3359 5.96094H11.8027C12.0703 5.96094 12.291 6.18164 12.291 6.44922V12.1016H17.4492C17.7187 12.1016 17.9375 12.3223 17.9375 12.5898V14.0566C17.9375 14.3262 17.7168 14.5449 17.4492 14.5449H9.8457V6.44922C9.8457 6.17969 10.0664 5.96094 10.3359 5.96094ZM12 2.72461C17.123 2.72461 21.2754 6.87695 21.2754 12C21.2754 17.123 17.123 21.2754 12 21.2754C6.87695 21.2754 2.72461 17.123 2.72461 12C2.72461 6.87891 6.87695 2.72461 12 2.72461Z" fill="#FF8D72"/>
</g>
<defs>
<clipPath id="clip0_19543_9953">
<rect width="24" height="24" fill="white"/>
</clipPath>
</defs>
</svg>
