<svg width="24" height="24" viewBox="0 0 24 24" fill="none" xmlns="http://www.w3.org/2000/svg">
<path d="M14.0923 12.6897C17.3551 12.6897 20 11.5142 20 10.0641C20 8.614 17.3551 7.43846 14.0923 7.43846C10.8296 7.43846 8.18462 8.614 8.18462 10.0641C8.18462 11.5142 10.8296 12.6897 14.0923 12.6897Z" stroke="#1F1F1F" stroke-width="2" stroke-linecap="round" stroke-linejoin="round"/>
<path d="M8.18462 10.0641V17.941C8.18462 19.3851 10.8103 20.5666 14.0923 20.5666C17.3744 20.5666 20 19.3851 20 17.941V10.0641" stroke="#1F1F1F" stroke-width="2" stroke-linecap="round" stroke-linejoin="round"/>
<path d="M20 14.0026C20 15.4467 17.3744 16.6282 14.0923 16.6282C10.8103 16.6282 8.18462 15.4467 8.18462 14.0026" stroke="#1F1F1F" stroke-width="2" stroke-linecap="round" stroke-linejoin="round"/>
<path d="M15.0277 4.82435C13.4936 3.87764 11.708 3.41978 9.90769 3.51152C6.63877 3.51152 4 4.69307 4 6.13717C4 6.91173 4.76144 7.60753 5.96923 8.1064" stroke="#1F1F1F" stroke-width="2" stroke-linecap="round" stroke-linejoin="round"/>
<path d="M5.96923 15.9833C4.76144 15.4845 4 14.7887 4 14.0141V6.13718" stroke="#1F1F1F" stroke-width="2" stroke-linecap="round" stroke-linejoin="round"/>
<path d="M5.96923 12.0449C4.76144 11.546 4 10.8502 4 10.0756" stroke="#1F1F1F" stroke-width="2" stroke-linecap="round" stroke-linejoin="round"/>
</svg>
