<svg width="24" height="24" viewBox="0 0 24 24" fill="none" xmlns="http://www.w3.org/2000/svg">
<path d="M12.0043 6.60903C9.02305 6.60903 6.61836 9.01372 6.61836 11.995C6.61836 14.9762 9.02305 17.3809 12.0043 17.3809C14.9855 17.3809 17.3902 14.9762 17.3902 11.995C17.3902 9.01372 14.9855 6.60903 12.0043 6.60903ZM12.0043 15.4965C10.0777 15.4965 8.50273 13.9262 8.50273 11.995C8.50273 10.0637 10.073 8.49341 12.0043 8.49341C13.9355 8.49341 15.5059 10.0637 15.5059 11.995C15.5059 13.9262 13.9309 15.4965 12.0043 15.4965V15.4965ZM18.8668 6.38872C18.8668 7.08716 18.3043 7.64497 17.6105 7.64497C16.9121 7.64497 16.3543 7.08247 16.3543 6.38872C16.3543 5.69497 16.9168 5.13247 17.6105 5.13247C18.3043 5.13247 18.8668 5.69497 18.8668 6.38872ZM22.434 7.66372C22.3543 5.98091 21.9699 4.49028 20.7371 3.26216C19.509 2.03403 18.0184 1.64966 16.3355 1.56528C14.6012 1.46685 9.40273 1.46685 7.66836 1.56528C5.99023 1.64497 4.49961 2.02935 3.2668 3.25747C2.03398 4.4856 1.6543 5.97622 1.56992 7.65903C1.47148 9.39341 1.47148 14.5918 1.56992 16.3262C1.64961 18.009 2.03398 19.4997 3.2668 20.7278C4.49961 21.9559 5.98555 22.3403 7.66836 22.4247C9.40273 22.5231 14.6012 22.5231 16.3355 22.4247C18.0184 22.345 19.509 21.9606 20.7371 20.7278C21.9652 19.4997 22.3496 18.009 22.434 16.3262C22.5324 14.5918 22.5324 9.3981 22.434 7.66372V7.66372ZM20.1934 18.1872C19.8277 19.1059 19.1199 19.8137 18.1965 20.184C16.8137 20.7325 13.5324 20.6059 12.0043 20.6059C10.4762 20.6059 7.19023 20.7278 5.81211 20.184C4.89336 19.8184 4.18555 19.1106 3.81523 18.1872C3.2668 16.8043 3.39336 13.5231 3.39336 11.995C3.39336 10.4668 3.27148 7.18091 3.81523 5.80278C4.18086 4.88403 4.88867 4.17622 5.81211 3.80591C7.19492 3.25747 10.4762 3.38403 12.0043 3.38403C13.5324 3.38403 16.8184 3.26216 18.1965 3.80591C19.1152 4.17153 19.823 4.87935 20.1934 5.80278C20.7418 7.1856 20.6152 10.4668 20.6152 11.995C20.6152 13.5231 20.7418 16.809 20.1934 18.1872Z" fill="#A4A1AA"/>
</svg>
