<svg width="24" height="24" viewBox="0 0 24 24" fill="none" xmlns="http://www.w3.org/2000/svg">
<path d="M18.7711 2.8314C17.8596 1.9115 16.7949 1.19845 15.6046 0.710557C12.0226 -0.752177 7.94261 0.085611 5.21175 2.83519C3.40026 4.66424 2.40039 6.99286 2.40039 9.40076C2.40039 11.8049 3.39964 14.136 5.21175 15.9632L6.2085 16.9589C8.20887 18.9515 9.9339 20.6719 11.414 23.0634L11.9897 24L12.5692 23.0634C14.0493 20.6719 15.7743 18.9515 17.7713 16.9611L18.7708 15.96C22.5435 12.1566 22.5435 6.63508 18.7711 2.8314ZM14.969 12.834C13.3245 14.4944 10.6587 14.4944 9.01391 12.834C7.36969 11.1793 7.36969 8.49192 9.01391 6.83402C10.6587 5.17929 13.3245 5.17929 14.969 6.83402C16.6098 8.49192 16.6098 11.1786 14.969 12.834Z" fill="#FF8D72"/>
</svg>
