<svg width="24" height="24" viewBox="0 0 24 24" fill="none" xmlns="http://www.w3.org/2000/svg">
<path d="M18.83 9.14C20.7986 9.14 22.4 7.5386 22.4 5.57C22.4 3.6014 20.7986 2 18.83 2C16.8614 2 15.26 3.6014 15.26 5.57C15.26 7.5386 16.8614 9.14 18.83 9.14ZM20.36 17.3V10.9658C19.85 11.1086 19.34 11.18 18.83 11.18C18.6566 11.18 18.4934 11.18 18.32 11.18V17.3C18.32 18.9932 16.9532 20.36 15.26 20.36H7.1C5.4068 20.36 4.04 18.9932 4.04 17.3V9.14C4.04 7.4468 5.4068 6.08 7.1 6.08H13.22C13.22 5.9168 13.22 5.7434 13.22 5.57C13.22 5.06 13.2914 4.55 13.4342 4.04H7.1C4.2848 4.04 2 6.3248 2 9.14V17.3C2 20.1152 4.2848 22.4 7.1 22.4H15.26C18.0752 22.4 20.36 20.1152 20.36 17.3Z" fill="black"/>
</svg>
