<svg width="24" height="24" viewBox="0 0 24 24" fill="none" xmlns="http://www.w3.org/2000/svg">
<path d="M12 0C18.6274 0 24 5.37258 24 12C24 18.6274 18.6274 24 12 24C5.37258 24 0 18.6274 0 12C0 5.37258 5.37258 0 12 0ZM17.4834 7.35254C17.2365 7.10767 16.8378 7.10965 16.5928 7.35645C14.4801 9.48552 12.799 11.6123 11.6465 13.2061C11.0861 13.981 10.65 14.6316 10.3486 15.0967C10.2263 14.9507 10.0844 14.7873 9.92285 14.6123C9.26423 13.8989 8.27385 12.9744 6.94238 12.1201C6.64955 11.9323 6.26013 12.0177 6.07227 12.3105C5.88457 12.6033 5.96916 12.9927 6.26172 13.1807C7.48549 13.9658 8.39463 14.8162 8.99609 15.4678C9.29651 15.7932 9.51922 16.068 9.66504 16.2588C9.73792 16.3542 9.79176 16.4286 9.82617 16.4775C9.8433 16.5019 9.85569 16.52 9.86328 16.5312L9.87109 16.543L9.87305 16.5449C9.99211 16.7269 10.1966 16.8349 10.4141 16.8301C10.6321 16.8252 10.8327 16.7075 10.9434 16.5195L10.9443 16.5176L10.9492 16.5098L10.9688 16.4766C10.9868 16.4466 11.0142 16.4013 11.0508 16.3418C11.1242 16.2225 11.2351 16.0459 11.3809 15.8203C11.6725 15.369 12.1057 14.7219 12.668 13.9443C13.7932 12.3882 15.4316 10.3149 17.4863 8.24414C17.7314 7.99716 17.7304 7.59761 17.4834 7.35254Z" fill="#EA3C12"/>
</svg>
