<svg width="24" height="24" viewBox="0 0 24 24" fill="none" xmlns="http://www.w3.org/2000/svg">
<path d="M12 0C18.6274 0 24 5.37258 24 12C24 18.6274 18.6274 24 12 24C5.37258 24 0 18.6274 0 12C0 5.37258 5.37258 0 12 0ZM16.7109 7.76562C16.3841 7.51124 15.9127 7.56972 15.6582 7.89648L10.623 14.3613L8.14355 11.8252C7.854 11.529 7.37919 11.5239 7.08301 11.8135C6.78721 12.1031 6.78186 12.578 7.07129 12.874L10.1514 16.0244C10.3026 16.1791 10.5135 16.2611 10.7295 16.249C10.9456 16.2369 11.1463 16.1317 11.2793 15.9609L16.8418 8.81836C17.0963 8.49159 17.0376 8.02015 16.7109 7.76562Z" fill="#EA3C12"/>
</svg>
