<svg width="50" height="50" viewBox="0 0 50 50" fill="none" xmlns="http://www.w3.org/2000/svg">
<path d="M25.1395 46C23.496 46 22.0542 45.6951 20.814 45.085C19.5737 44.5055 18.6279 43.6362 17.9767 42.4771C17.3256 41.3487 17 39.9912 17 38.4052C17 36.9716 17.2791 35.3856 17.8372 33.6471C18.4263 31.9085 19.4807 30.1242 21 28.2941C22.5193 26.4641 24.6744 24.7102 27.4651 23.0327V8.80392H20.7209V4H33V37.5817C33 39.1983 32.69 40.6471 32.0698 41.9281C31.4807 43.2091 30.597 44.2004 29.4186 44.902C28.2714 45.634 26.8449 46 25.1395 46ZM24.7674 41.1046C25.2947 41.1046 25.7598 40.9673 26.1628 40.6928C26.5658 40.4183 26.876 40.0219 27.093 39.5033C27.31 39.0153 27.4186 38.4206 27.4186 37.719V28.6144C25.7133 29.9565 24.4884 31.2376 23.7442 32.4575C23 33.6775 22.5505 34.7604 22.3953 35.7059C22.2402 36.6209 22.1628 37.3225 22.1628 37.8105C22.1628 38.8781 22.4263 39.6863 22.9535 40.2353C23.4807 40.8147 24.0853 41.1046 24.7674 41.1046Z" fill="#EA3C12"/>
</svg>
